<?xml version="1.0" encoding="utf-8"?>
<!-- Generator: Adobe Illustrator 22.0.1, SVG Export Plug-In . SVG Version: 6.00 Build 0)  -->
<svg version="1.1" id="Слой_1" xmlns="http://www.w3.org/2000/svg" xmlns:xlink="http://www.w3.org/1999/xlink" x="0px" y="0px"
	 viewBox="0 0 69.9 65.9" style="enable-background:new 0 0 69.9 65.9;" xml:space="preserve">
<style type="text/css">
	.st0{fill:#231F20;}
</style>
<path class="st0" d="M2.7,2.8C5.4,2,8.4,2,11.3,2.4c3,0.4,5.9,1.3,8.7,2.4c5.3,2.1,10.2,5,14.6,8.6C44,21.2,50.8,31.6,55,43
	c1.6,4.4,2.8,8.8,3.8,13.4C58,55.3,57,54.1,56,52.9c-3.1-3.7-6.5-7.3-10.1-10.6c-0.7-0.6-1.8-0.5-2.6-0.2c-0.4,0.1-1.8,0.9-1.1,1.5
	c3.4,3.2,6.7,6.6,9.7,10.2c1.5,1.8,2.9,3.6,4.3,5.4c0.7,0.9,1.4,1.8,2,2.8c0.4,0.5,0.7,1,1.1,1.5c0.2,0.4,0.7,0.8,0.5,1.2
	c-0.1,0.4,0.1,0.6,0.4,0.8c0.4,0.3,1.3,0.4,1.6,0.4c0.9-0.1,1.9-0.4,2.3-1.2c3.7-7.2,5.7-15.2,5.8-23.3c0-0.3-0.5-0.5-0.7-0.6
	c-0.5-0.1-1-0.1-1.5,0C67.1,41,66,41.4,66,42.2c-0.1,5.3-1,10.5-2.7,15.5c-2.1-11.4-6.1-22.5-12.6-32.1C44.1,15.9,34.8,7.7,23.9,3.2
	c-7.2-2.9-15-4.3-22.6-2.1C0.8,1.3-0.4,1.9,0.2,2.6C0.7,3.4,2.1,3,2.7,2.8z"/>
</svg>
