<?xml version="1.0" encoding="iso-8859-1"?>
<!-- Generator: Adobe Illustrator 16.0.0, SVG Export Plug-In . SVG Version: 6.00 Build 0)  -->
<!DOCTYPE svg PUBLIC "-//W3C//DTD SVG 1.1//EN" "http://www.w3.org/Graphics/SVG/1.1/DTD/svg11.dtd">
<svg version="1.1" id="Capa_1" xmlns="http://www.w3.org/2000/svg" xmlns:xlink="http://www.w3.org/1999/xlink" x="0px" y="0px"
	 width="572.221px" height="572.221px" viewBox="0 0 572.221 572.221" style="enable-background:new 0 0 572.221 572.221;"
	 xml:space="preserve">
<g>
	<g>
		<path d="M286.11,572.221c157.761,0,286.111-128.35,286.111-286.111S443.871,0,286.11,0S0,128.349,0,286.11
			S128.349,572.221,286.11,572.221z M286.11,45.9c132.453,0,240.21,107.758,240.21,240.21c0,132.453-107.758,240.21-240.21,240.21
			c-132.452,0-240.21-107.758-240.21-240.21C45.9,153.658,153.658,45.9,286.11,45.9z"/>
		<path d="M322.355,351.957c4.773,1.711,8.562,7.418,8.562,12.488v27.846c0,5.07,2.906,6.273,6.49,2.691l134.508-134.509
			c3.586-3.586,3.586-9.397,0-12.983L337.408,112.981c-3.586-3.586-6.49-2.38-6.49,2.69v30.906c0,5.071-4.113,9.156-9.178,9.407
			c-114.894,5.686-207.208,120.42-211.877,236.312c-0.205,5.066,2.071,5.74,5.116,1.686
			C179.126,308.645,290.748,340.629,322.355,351.957z"/>
	</g>
</g>
<g>
</g>
<g>
</g>
<g>
</g>
<g>
</g>
<g>
</g>
<g>
</g>
<g>
</g>
<g>
</g>
<g>
</g>
<g>
</g>
<g>
</g>
<g>
</g>
<g>
</g>
<g>
</g>
<g>
</g>
</svg>
