<?xml version="1.0" encoding="utf-8"?>
<!-- Generator: Adobe Illustrator 22.0.1, SVG Export Plug-In . SVG Version: 6.00 Build 0)  -->
<svg version="1.1" id="Слой_1" xmlns="http://www.w3.org/2000/svg" xmlns:xlink="http://www.w3.org/1999/xlink" x="0px" y="0px"
	 viewBox="0 0 91.9 85.4" style="enable-background:new 0 0 91.9 85.4;" xml:space="preserve">
<g>
	<path d="M1.3,46.9c4.8,0.7,9.8,1.4,14.1,1.7c0,0,0,0.1,0,0.1l-0.1,0.2c-0.2,0.6-0.4,1.3-0.4,2.1c0,3.1,2.2,5.4,5.2,5.4
		c3.2,0,5.9-2.4,5.9-5.4c0-0.5-0.1-0.9-0.2-1.3c0-0.1-0.1-0.2-0.1-0.3c-0.1-0.3-0.1-0.6-0.1-0.9c6-0.3,11.2-1.2,16.1-2
		c-0.1,0.9-0.3,1.8-0.4,2.7l0,0c-0.2,1.6,0.5,3.2,1.9,4.1c0.8,0.5,1.6,0.8,2.5,0.8c0.7,0,1.4-0.2,2-0.5c2.7-1.4,2.4-4.2,2.3-6.1
		c0-0.3-0.1-0.7-0.1-1c0-0.4,0-0.8,0-1.2c4.2-0.6,8.4-0.9,12.9-1c-0.3,1.7-0.6,3.5-0.8,5.4l0,0c-0.2,2.1,0.7,4.2,2.5,5.5
		c1,0.7,2.2,1.1,3.3,1.1c0.9,0,1.8-0.2,2.6-0.7c3.6-1.9,3.2-5.6,3-8.4c0-0.5-0.1-1-0.1-1.5c0-0.4,0-0.8,0-1.2
		c4.5,0.4,9.5,0.9,15,2.2c0.1,0,0.2,0,0.3,0c0.7,0,1.3-0.5,1.5-1.2c0.2-0.8-0.3-1.6-1.1-1.8c-5.8-1.3-11-1.8-15.6-2.2
		c0.1-2.8,0.3-5.5,0.8-8.1C75,28.8,76.2,24.7,78,21c1.5-3.1,3-5.5,5.7-9.3L91.9,0L81.4,9.8C77.9,13,71.2,20.4,67.9,27.7
		c-2,4.1-3.5,8.6-4.6,13.7c-4.7,0-9,0.4-13.4,0.9c0.1-1.3,0.3-2.6,0.5-3.9c0.6-3.2,1.5-5.9,2.6-8.3c1-2.1,2-3.6,3.7-6.1L65,12.3
		l-10.6,9.8c-2.4,2.2-6.9,7.2-9.1,12.1c-1.3,2.7-2.3,5.7-3.1,9.1l-0.3,0c-5.1,0.9-10.4,1.8-16.5,2.1c0.1-2,0.5-4.1,0.9-6.2l0.1-0.7
		c0.9-4.8,2.2-8.9,3.9-12.6c1.5-3.2,3-5.5,5.7-9.3L44.4,5l-10.6,9.8c-3.5,3.2-10.2,10.6-13.5,17.9c-1.6,3.3-2.5,6.7-3.4,10.1
		c-0.2,0.9-0.5,1.9-0.8,2.8c-4.3-0.2-9.5-0.9-14.5-1.7c-0.8-0.1-1.6,0.4-1.7,1.3S0.5,46.8,1.3,46.9z"/>
	<path d="M88.8,80.9c-22.2-4.4-34.5-2.5-46.5-0.6C31.5,82,20.4,83.7,1.7,80.9c-0.8-0.1-1.6,0.4-1.7,1.3c-0.1,0.8,0.4,1.6,1.3,1.7
		c7.4,1.1,13.6,1.5,19.1,1.5c8.8,0,15.7-1.1,22.4-2.1c12.2-1.9,23.8-3.7,45.4,0.6c0.8,0.2,1.6-0.4,1.8-1.2
		C90.1,81.9,89.6,81.1,88.8,80.9z"/>
	<path d="M1.8,68.9c21.9-4.2,33.4-2.5,45.6-0.6c6.7,1,13.5,2.1,22.2,2.1c5.5,0,11.7-0.4,19.1-1.5c0.8-0.1,1.4-0.9,1.3-1.7
		c-0.1-0.8-0.9-1.4-1.7-1.3c-18.7,2.8-29.7,1.1-40.4-0.6c-11.9-1.9-24.2-3.8-46.6,0.6c-0.8,0.2-1.3,0.9-1.2,1.8
		C0.2,68.5,1,69,1.8,68.9z"/>
	<circle cx="9" cy="54.9" r="2.5"/>
	<circle cx="34" cy="54.9" r="1.5"/>
	<circle cx="56" cy="49.6" r="2.5"/>
	<circle cx="51" cy="59.9" r="2.5"/>
	<circle cx="82" cy="50.9" r="2.5"/>
	<circle cx="75" cy="60.9" r="1.5"/>
</g>
</svg>
