<?xml version="1.0" encoding="utf-8"?>
<!-- Generator: Adobe Illustrator 22.0.1, SVG Export Plug-In . SVG Version: 6.00 Build 0)  -->
<svg version="1.1" id="Слой_1" xmlns="http://www.w3.org/2000/svg" xmlns:xlink="http://www.w3.org/1999/xlink" x="0px" y="0px"
	 viewBox="0 0 69.9 65.9" style="enable-background:new 0 0 69.9 65.9;" xml:space="preserve">
<style type="text/css">
	.st0{fill:#231F20;}
</style>
<path class="st0" d="M65.1,0.7c0.8,2.7,0.8,5.7,0.4,8.6c-0.4,3-1.3,5.9-2.4,8.7c-2.1,5.3-5,10.2-8.6,14.6C46.7,42,36.3,48.8,24.9,53
	c-4.4,1.6-8.8,2.8-13.4,3.8C12.6,56,13.8,55,15,54c3.7-3.1,7.3-6.5,10.6-10.1c0.6-0.7,0.5-1.8,0.2-2.6c-0.1-0.4-0.9-1.8-1.5-1.1
	c-3.2,3.4-6.6,6.7-10.2,9.7c-1.8,1.5-3.6,2.9-5.4,4.3c-0.9,0.7-1.8,1.4-2.8,2c-0.5,0.4-1,0.7-1.5,1.1C4,57.5,3.6,58,3.2,57.8
	c-0.4-0.1-0.6,0.1-0.8,0.4C2.1,58.6,2,59.5,2,59.8c0.1,0.9,0.4,1.9,1.2,2.3c7.2,3.7,15.2,5.7,23.3,5.8c0.3,0,0.5-0.5,0.6-0.7
	c0.1-0.5,0.1-1,0-1.5c-0.2-0.6-0.6-1.7-1.4-1.7c-5.3-0.1-10.5-1-15.5-2.7c11.4-2.1,22.5-6.1,32.1-12.6c9.7-6.6,17.9-15.9,22.4-26.8
	c2.9-7.2,4.3-15,2.1-22.6c-0.2-0.5-0.8-1.7-1.5-1.1C64.5-1.3,64.9,0.1,65.1,0.7z"/>
</svg>
