<?xml version="1.0" encoding="utf-8"?>
<!-- Generator: Adobe Illustrator 22.0.1, SVG Export Plug-In . SVG Version: 6.00 Build 0)  -->
<svg version="1.1" id="Слой_1" xmlns="http://www.w3.org/2000/svg" xmlns:xlink="http://www.w3.org/1999/xlink" x="0px" y="0px"
	 viewBox="0 0 69.9 65.9" style="enable-background:new 0 0 69.9 65.9;" xml:space="preserve">
<style type="text/css">
	.st0{fill:#231F20;}
</style>
<path class="st0" d="M68.1,20.7c-0.6,2-1.8,4-3.2,5.7c-1.5,1.8-3.3,3.4-5.2,4.8c-3.6,2.6-7.6,4.8-11.9,6.3
	c-9.3,3.2-19.3,3.7-28.9,2.2c-3.7-0.6-7.3-1.5-10.9-2.6c1.1-0.1,2.3-0.3,3.5-0.5c3.9-0.6,7.7-1.5,11.5-2.6c0.7-0.2,1-1,1.2-1.7
	c0.1-0.3,0.1-1.5-0.6-1.3c-3.6,1-7.3,1.9-11.1,2.5c-1.9,0.3-3.7,0.5-5.5,0.8c-0.9,0.2-1.9,0.2-2.7,0.2c-0.5,0.1-1,0.1-1.5,0.2
	c-0.3,0-0.8,0.2-1-0.2c-0.2-0.2-0.5-0.2-0.7-0.1c-0.4,0.2-0.8,0.7-0.9,0.9c-0.3,0.6-0.5,1.4-0.1,2C3.6,42.6,8.4,47,14,50.1
	c0.2,0.2,0.6-0.2,0.7-0.2c0.2-0.3,0.5-0.6,0.6-1c0.1-0.5,0.2-1.4-0.3-1.7c-3.6-2-6.9-4.6-9.8-7.6c8.8,2.9,18.1,4.5,27.5,3.9
	c9.4-0.7,19-3.6,26.5-9.1c4.9-3.6,9-8.2,10.6-14c0.1-0.4,0.2-1.4-0.6-1.3C68.5,19.2,68.2,20.3,68.1,20.7z"/>
</svg>
