<?xml version="1.0" encoding="utf-8"?>
<!-- Generator: Adobe Illustrator 22.0.1, SVG Export Plug-In . SVG Version: 6.00 Build 0)  -->
<svg version="1.1" id="Слой_1" xmlns="http://www.w3.org/2000/svg" xmlns:xlink="http://www.w3.org/1999/xlink" x="0px" y="0px"
	 viewBox="0 0 69.9 65.9" style="enable-background:new 0 0 69.9 65.9;" xml:space="preserve">
<style type="text/css">
	.st0{fill:#231F20;}
</style>
<path class="st0" d="M0.2,63.3c-0.6,0.7,0.6,1.3,1.1,1.5c7.6,2.2,15.4,0.8,22.6-2.1C34.8,58.2,44.1,50,50.7,40.3
	c6.5-9.6,10.5-20.7,12.6-32.1c1.7,5,2.6,10.2,2.7,15.5c0,0.8,1.1,1.2,1.7,1.4c0.5,0.1,1,0.1,1.5,0c0.2-0.1,0.7-0.3,0.7-0.6
	c-0.1-8.1-2.1-16.1-5.8-23.3c-0.4-0.8-1.4-1.1-2.3-1.2c-0.3,0-1.2,0.1-1.6,0.4c-0.3,0.2-0.5,0.4-0.4,0.8C60,1.6,59.5,2,59.3,2.4
	c-0.4,0.5-0.7,1-1.1,1.5c-0.6,1-1.3,1.9-2,2.8c-1.4,1.8-2.8,3.6-4.3,5.4c-3,3.6-6.3,7-9.7,10.2c-0.7,0.6,0.7,1.4,1.1,1.5
	c0.8,0.3,1.9,0.4,2.6-0.2c3.6-3.3,7-6.9,10.1-10.6c1-1.2,2-2.4,2.8-3.5c-1,4.6-2.2,9-3.8,13.4c-4.2,11.4-11,21.8-20.4,29.6
	c-4.4,3.6-9.3,6.5-14.6,8.6c-2.8,1.1-5.7,2-8.7,2.4c-2.9,0.4-5.9,0.4-8.6-0.4C2.1,62.9,0.7,62.5,0.2,63.3z"/>
</svg>
