<?xml version="1.0" encoding="utf-8"?>
<!-- Generator: Adobe Illustrator 22.0.1, SVG Export Plug-In . SVG Version: 6.00 Build 0)  -->
<svg version="1.1" id="Слой_1" xmlns="http://www.w3.org/2000/svg" xmlns:xlink="http://www.w3.org/1999/xlink" x="0px" y="0px"
	 viewBox="0 0 37.5 37.3" style="enable-background:new 0 0 37.5 37.3;" xml:space="preserve">
<path d="M29.5,37.3c-0.2,0-0.5,0-0.7,0h-0.1c-0.4,0-2.6-0.3-5.7-1.3c-5.3-1.7-9.8-4.4-13.5-8.1s-6.4-8.2-8.1-13.5
	c-1-3.1-1.3-5.4-1.3-5.7V8.6C-0.2,6.3,0.6,4,2.2,2.3c2.1-2.1,5.2-2.8,8-1.9c0.7,0.3,1.2,0.9,1.4,1.7l1.8,9.9c0.1,0.7-0.1,1.5-0.7,2
	c-0.5,0.4-1.1,0.8-1.7,1.1v0.1c1.3,2.4,3,4.5,4.8,6.4l0.1,0.1c1.9,1.9,4.1,3.5,6.5,4.8c0,0,0.8-1.2,1.2-1.8c0.5-0.6,1.2-0.8,2-0.7
	l9.9,1.8c0.7,0.1,1.4,0.6,1.6,1.3c1,2.8,0.2,5.9-1.9,8C33.5,36.5,31.5,37.3,29.5,37.3z M28.8,35.3L28.8,35.3
	c1.8,0.2,3.5-0.4,4.7-1.7c1.6-1.6,2.1-3.8,1.4-5.9L25,25.9c-0.4,0.4-0.6,0.8-0.8,1.3l0,0c-0.2,0.5-0.7,1-1.3,1.1
	c-0.6,0.2-1.2,0.1-1.7-0.2c-2.5-1.4-4.8-3.1-6.8-5.1l-0.1-0.1l-0.1-0.1c-2-2-3.7-4.3-5.1-6.8c-0.3-0.5-0.4-1.1-0.2-1.7
	s0.6-1,1.1-1.3c0.5-0.2,0.9-0.5,1.3-0.8L9.6,2.4c-2.1-0.8-4.4-0.2-6,1.3C2.4,4.9,1.8,6.6,1.9,8.4v0.1l0,0c0,0,0.3,2.2,1.3,5.2
	c1.6,5,4.1,9.3,7.6,12.7c3.4,3.5,7.7,6,12.7,7.6C26.4,35,28.4,35.3,28.8,35.3z"/>
</svg>
