<?xml version="1.0" encoding="utf-8"?>
<!-- Generator: Adobe Illustrator 22.0.1, SVG Export Plug-In . SVG Version: 6.00 Build 0)  -->
<svg version="1.1" id="Слой_1" xmlns="http://www.w3.org/2000/svg" xmlns:xlink="http://www.w3.org/1999/xlink" x="0px" y="0px"
	 viewBox="0 0 90 90" style="enable-background:new 0 0 90 90;" xml:space="preserve">
<path d="M45,22.7c-12.3,0-22.3,10-22.3,22.3s10,22.3,22.3,22.3s22.3-10,22.3-22.3C67.3,32.7,57.3,22.7,45,22.7z M45,64.1
	c-10.6,0-19.1-8.6-19.1-19.1c0-10.6,8.6-19.1,19.1-19.1c10.6,0,19.1,8.6,19.1,19.1C64.1,55.6,55.6,64.1,45,64.1z"/>
<path d="M43.4,1.6v6.8v6.8c0,0.9,0.7,1.6,1.6,1.6s1.6-0.7,1.6-1.6V8.3V1.6C46.6,0.7,45.9,0,45,0S43.4,0.7,43.4,1.6z"/>
<path d="M45,73.3c-0.9,0-1.6,0.7-1.6,1.6v6.8v6.8c0,0.9,0.7,1.6,1.6,1.6s1.6-0.7,1.6-1.6v-6.8v-6.8C46.6,74,45.9,73.3,45,73.3z"/>
<path d="M30.4,9.7c-0.8,0.3-1.2,1.3-0.9,2.1l2.6,6.2c0.3,0.6,0.8,1,1.5,1c0.2,0,0.4,0,0.6-0.1c0.8-0.3,1.2-1.3,0.9-2.1l-2.6-6.2
	C32.1,9.7,31.2,9.3,30.4,9.7z"/>
<path d="M57.9,72c-0.3-0.8-1.3-1.2-2.1-0.9c-0.8,0.3-1.2,1.3-0.9,2.1l2.6,6.2c0.3,0.6,0.8,1,1.5,1c0.2,0,0.4,0,0.6-0.1
	c0.8-0.3,1.2-1.3,0.9-2.1L57.9,72z"/>
<path d="M11.7,29.5c-0.8-0.3-1.7,0-2.1,0.9c-0.3,0.8,0,1.7,0.9,2.1l6.2,2.6c0.2,0.1,0.4,0.1,0.6,0.1c0.6,0,1.2-0.4,1.5-1
	c0.3-0.8,0-1.7-0.9-2.1L11.7,29.5z"/>
<path d="M79.5,57.6L73.2,55c-0.8-0.3-1.7,0.1-2.1,0.9c-0.3,0.8,0,1.7,0.9,2.1l6.2,2.6c0.2,0.1,0.4,0.1,0.6,0.1c0.6,0,1.2-0.4,1.5-1
	C80.7,58.8,80.3,57.9,79.5,57.6z"/>
<path d="M18.8,55.8c-0.3-0.8-1.3-1.2-2.1-0.9l-6.2,2.6c-0.8,0.3-1.2,1.3-0.9,2.1c0.3,0.6,0.8,1,1.5,1c0.2,0,0.4,0,0.6-0.1l6.2-2.6
	C18.8,57.6,19.2,56.6,18.8,55.8z"/>
<path d="M72.6,35.1c0.2,0,0.4,0,0.6-0.1l6.2-2.6c0.8-0.3,1.2-1.3,0.9-2.1s-1.3-1.2-2.1-0.9L72,32.1c-0.8,0.3-1.2,1.3-0.9,2.1
	C71.4,34.8,72,35.1,72.6,35.1z"/>
<path d="M34.2,71.2c-0.8-0.3-1.7,0.1-2.1,0.9l-2.6,6.2c-0.3,0.8,0,1.7,0.9,2.1c0.2,0.1,0.4,0.1,0.6,0.1c0.6,0,1.2-0.4,1.5-1l2.6-6.2
	C35.4,72.4,35,71.5,34.2,71.2z"/>
<path d="M57.6,10.5L55,16.8c-0.3,0.8,0.1,1.7,0.9,2.1c0.2,0.1,0.4,0.1,0.6,0.1c0.6,0,1.2-0.4,1.5-1l2.6-6.2c0.3-0.8,0-1.7-0.9-2.1
	C58.8,9.3,57.9,9.7,57.6,10.5z"/>
<path d="M23.9,25.4c0.4,0,0.8-0.2,1.1-0.5c0.6-0.6,0.6-1.6,0-2.3l-9.5-9.5c-0.6-0.6-1.6-0.6-2.3,0s-0.6,1.6,0,2.3l9.5,9.6
	C23,25.3,23.4,25.4,23.9,25.4z"/>
<path d="M67.3,65c-0.6-0.6-1.6-0.6-2.3,0s-0.6,1.6,0,2.3l9.5,9.5c0.3,0.3,0.7,0.5,1.1,0.5c0.4,0,0.8-0.2,1.1-0.5
	c0.6-0.6,0.6-1.6,0-2.3L67.3,65z"/>
<path d="M16.7,45c0-0.9-0.7-1.6-1.6-1.6H1.6C0.7,43.4,0,44.1,0,45s0.7,1.6,1.6,1.6h13.5C16,46.6,16.7,45.9,16.7,45z"/>
<path d="M88.4,43.4H74.9c-0.9,0-1.6,0.7-1.6,1.6s0.7,1.6,1.6,1.6h13.5c0.9,0,1.6-0.7,1.6-1.6S89.3,43.4,88.4,43.4z"/>
<path d="M22.7,65l-9.5,9.6c-0.6,0.6-0.6,1.6,0,2.3c0.3,0.3,0.7,0.5,1.1,0.5c0.4,0,0.8-0.2,1.1-0.5l9.6-9.5c0.6-0.6,0.6-1.6,0-2.3
	C24.4,64.4,23.4,64.4,22.7,65z"/>
<path d="M76.8,13.2c-0.6-0.6-1.6-0.6-2.3,0L65,22.7c-0.6,0.6-0.6,1.6,0,2.3c0.3,0.3,0.7,0.5,1.1,0.5c0.4,0,0.8-0.2,1.1-0.5l9.6-9.6
	C77.4,14.8,77.4,13.8,76.8,13.2z"/>
</svg>
