<?xml version="1.0" encoding="utf-8"?>
<!-- Generator: Adobe Illustrator 22.0.1, SVG Export Plug-In . SVG Version: 6.00 Build 0)  -->
<svg version="1.1" id="Слой_1" xmlns="http://www.w3.org/2000/svg" xmlns:xlink="http://www.w3.org/1999/xlink" x="0px" y="0px"
	 viewBox="0 0 93.5 88.8" style="enable-background:new 0 0 93.5 88.8;" xml:space="preserve">
<path d="M91,88.8H2.5c-0.7,0-1.4-0.3-1.8-0.8C0.2,87.4,0,86.7,0,86c1.4-17.5,16.4-31.3,34-31.3h25.5c17.6,0,32.6,13.7,34,31.3
	c0.1,0.7-0.2,1.4-0.7,1.9C92.4,88.5,91.7,88.8,91,88.8z M5.3,83.8h82.8c-2.4-13.7-14.5-24-28.7-24H34C19.9,59.8,7.8,70.1,5.3,83.8z
	 M46.8,51.8c-11.6,0-21.1-9.5-21.1-21.1v-9.5C25.6,9.5,35.1,0,46.8,0s21.1,9.5,21.1,21.1v9.5C67.9,42.3,58.4,51.8,46.8,51.8z
	 M46.8,5c-8.9,0-16.1,7.2-16.1,16.1v9.5c0,8.9,7.2,16.1,16.1,16.1s16.1-7.2,16.1-16.1v-9.5C62.9,12.2,55.6,5,46.8,5z"/>
</svg>
